<svg width="74" height="74" viewBox="0 0 74 74" fill="none" xmlns="http://www.w3.org/2000/svg">
<circle cx="36.9971" cy="37" r="36.4971" fill="#6D6D6D"/>
<path d="M53.9495 43.8842C53.554 43.88 53.1616 43.9562 52.7963 44.1079L45.3786 46.8444C45.3956 46.6612 45.3956 46.4769 45.3786 46.2937C45.3786 45.4401 45.0396 44.6215 44.436 44.0179C43.8324 43.4144 43.0137 43.0753 42.1602 43.0753H36.997C36.8583 43.0761 36.7218 43.0405 36.6012 42.972L32.7116 40.8035C31.6057 40.1527 30.346 39.8096 29.0629 39.8096C27.7798 39.8096 26.5201 40.1527 25.4143 40.8035C24.8812 41.1022 24.2979 41.3006 23.6932 41.3886H16.809C16.5944 41.3886 16.3887 41.4739 16.237 41.6256C16.0853 41.7773 16 41.983 16 42.1975V53.5221C16 53.6284 16.0209 53.7336 16.0616 53.8317C16.1022 53.9298 16.1619 54.019 16.237 54.0941C16.3121 54.1692 16.4012 54.2288 16.4994 54.2695C16.5975 54.3101 16.7027 54.331 16.809 54.331H23.6932C23.7994 54.331 23.9046 54.3101 24.0028 54.2695C24.1009 54.2288 24.1901 54.1692 24.2652 54.0941C24.3403 54.019 24.3998 53.9298 24.4405 53.8317C24.4811 53.7336 24.5021 53.6284 24.5021 53.5221V52.7476C26.6214 52.8759 28.6987 53.3953 30.629 54.2794C32.9922 55.3786 35.5613 55.9652 38.1673 56.0005C40.4161 55.9276 42.6302 55.4252 44.6902 54.5203L45.7745 54.0901L49.7672 52.369L50.6622 52.0592L51.4712 51.7667C52.1424 51.5085 52.6415 51.2503 53.1923 50.9749L55.2574 50.0112C55.9179 49.6983 56.4523 49.17 56.7726 48.5132C57.0929 47.8563 57.1801 47.11 57.0199 46.3969C56.8597 45.6839 56.4615 45.0467 55.891 44.59C55.3204 44.1333 54.6114 43.8844 53.8806 43.8842H53.9495Z" fill="#BCBCBC" stroke="#000305" stroke-width="0.185855" stroke-miterlimit="10"/>
<path d="M51.4011 22.5436C50.9761 21.235 50.1513 20.0927 49.0429 19.2775C47.9345 18.4624 46.5983 18.0156 45.2225 18C44.1489 18.0158 43.0915 18.264 42.1229 18.7275C41.1544 19.191 40.2977 19.8587 39.6118 20.6849C38.921 19.86 38.061 19.1934 37.09 18.7302C36.119 18.2669 35.0596 18.0179 33.9839 18C32.6053 18.0142 31.2663 18.4625 30.1571 19.2813C29.0479 20.1 28.225 21.2476 27.8053 22.5608C26.9964 25.2801 27.375 31.0112 39.1643 38.7732C39.2979 38.8596 39.4528 38.9072 39.6118 38.9109C39.7651 38.905 39.9138 38.8574 40.0421 38.7732C51.8314 31.0112 52.2272 25.2801 51.4011 22.5436Z" fill="#3F3F3F" stroke="#000305" stroke-width="0.185855" stroke-miterlimit="10"/>
<path d="M36.3789 29.2555H38.84V31.665C38.84 31.8795 38.9252 32.0853 39.0769 32.237C39.2286 32.3887 39.4343 32.4739 39.6488 32.4739C39.8634 32.4739 40.0692 32.3887 40.2209 32.237C40.3726 32.0853 40.4578 31.8795 40.4578 31.665V29.2555H42.8673C43.0594 29.2272 43.2349 29.1309 43.3618 28.9839C43.4887 28.837 43.5585 28.6493 43.5585 28.4552C43.5585 28.261 43.4887 28.0734 43.3618 27.9264C43.2349 27.7795 43.0594 27.6831 42.8673 27.6549H40.4578V25.2454C40.4578 25.0309 40.3726 24.8251 40.2209 24.6734C40.0692 24.5217 39.8634 24.4365 39.6488 24.4365C39.4343 24.4365 39.2286 24.5217 39.0769 24.6734C38.9252 24.8251 38.84 25.0309 38.84 25.2454V27.7065H36.4305C36.2384 27.7348 36.0629 27.8311 35.936 27.9781C35.8091 28.125 35.7393 28.3127 35.7393 28.5068C35.7393 28.701 35.8091 28.8886 35.936 29.0356C36.0629 29.1825 36.2384 29.2789 36.4305 29.3071L36.3789 29.2555Z" fill="white" stroke="#00070C" stroke-width="0.185855" stroke-miterlimit="10"/>
<path d="M45.5169 38.9983H46.7217V40.2031C46.7193 40.2565 46.7278 40.3098 46.7467 40.3599C46.7655 40.4099 46.7943 40.4556 46.8313 40.4942C46.8683 40.5328 46.9127 40.5635 46.9619 40.5845C47.0111 40.6054 47.064 40.6162 47.1175 40.6161C47.1717 40.6161 47.2255 40.6055 47.2756 40.5847C47.3257 40.564 47.3712 40.5335 47.4095 40.4952C47.4479 40.4568 47.4784 40.4113 47.4991 40.3612C47.5199 40.311 47.5305 40.2573 47.5305 40.2031V38.9983H48.7353C48.8403 38.9983 48.941 38.9566 49.0152 38.8824C49.0895 38.8082 49.1311 38.7075 49.1311 38.6025C49.1311 38.4975 49.0895 38.3968 49.0152 38.3226C48.941 38.2484 48.8403 38.2067 48.7353 38.2067H47.5305V37.0019C47.5305 36.8924 47.487 36.7873 47.4095 36.7099C47.332 36.6324 47.227 36.5889 47.1175 36.5889C47.064 36.5888 47.0111 36.5996 46.9619 36.6205C46.9127 36.6415 46.8683 36.6722 46.8313 36.7108C46.7943 36.7494 46.7655 36.7951 46.7467 36.8452C46.7278 36.8952 46.7193 36.9485 46.7217 37.0019V38.2067H45.5169C45.4119 38.2067 45.3112 38.2484 45.237 38.3226C45.1627 38.3968 45.1211 38.4975 45.1211 38.6025C45.1211 38.7075 45.1627 38.8082 45.237 38.8824C45.3112 38.9566 45.4119 38.9983 45.5169 38.9983Z" fill="#7D7E7E" stroke="black" stroke-width="0.172106" stroke-miterlimit="10"/>
<path d="M22.9539 20.9076H24.1586V22.1123C24.1586 22.2218 24.2021 22.3269 24.2796 22.4044C24.357 22.4818 24.4622 22.5254 24.5717 22.5254C24.6252 22.5254 24.6781 22.5146 24.7273 22.4937C24.7765 22.4727 24.8209 22.442 24.8579 22.4034C24.8948 22.3648 24.9237 22.3191 24.9425 22.2691C24.9614 22.219 24.9698 22.1657 24.9675 22.1123V20.9076H26.1723C26.2773 20.9076 26.3779 20.8658 26.4521 20.7916C26.5264 20.7174 26.5681 20.6167 26.5681 20.5117C26.5704 20.4583 26.5619 20.405 26.5431 20.3549C26.5242 20.3049 26.4954 20.2592 26.4584 20.2206C26.4214 20.182 26.377 20.1513 26.3279 20.1303C26.2787 20.1094 26.2257 20.0986 26.1723 20.0986H24.9675V18.8939C24.9675 18.7889 24.9258 18.6882 24.8515 18.614C24.7773 18.5398 24.6767 18.498 24.5717 18.498C24.4651 18.498 24.3626 18.5391 24.2856 18.6129C24.2086 18.6867 24.163 18.7874 24.1586 18.8939V20.0986H22.9539C22.9004 20.0986 22.8475 20.1094 22.7983 20.1303C22.7491 20.1513 22.7046 20.182 22.6677 20.2206C22.6307 20.2592 22.6019 20.3049 22.5831 20.3549C22.5642 20.405 22.5557 20.4583 22.558 20.5117C22.558 20.6167 22.5997 20.7174 22.674 20.7916C22.7482 20.8658 22.8489 20.9076 22.9539 20.9076Z" fill="#7D7E7E" stroke="black" stroke-width="0.172106" stroke-miterlimit="10"/>
<path d="M48.9604 36.6728H50.888V38.5488C50.8879 38.7147 50.9526 38.8741 51.0683 38.9931C51.184 39.112 51.3416 39.1811 51.5075 39.1856C51.675 39.1812 51.8345 39.1127 51.953 38.9942C52.0715 38.8757 52.1399 38.7163 52.1443 38.5488V36.6728H54.0203C54.1846 36.6728 54.3423 36.6075 54.4585 36.4913C54.5746 36.3751 54.6399 36.2176 54.6399 36.0532C54.6399 35.8889 54.5746 35.7313 54.4585 35.6151C54.3423 35.4989 54.1846 35.4337 54.0203 35.4337H52.0927V33.5577C52.0884 33.3902 52.0198 33.2307 51.9013 33.1122C51.7828 32.9937 51.6235 32.9253 51.4559 32.9209C51.2901 32.9254 51.1325 32.9945 51.0167 33.1134C50.901 33.2323 50.8362 33.3917 50.8363 33.5577V35.4337H48.9604C48.7961 35.4337 48.6384 35.4989 48.5222 35.6151C48.406 35.7313 48.3408 35.8889 48.3408 36.0532C48.3408 36.2176 48.406 36.3751 48.5222 36.4913C48.6384 36.6075 48.7961 36.6728 48.9604 36.6728Z" fill="#BCBCBC" stroke="#000305" stroke-width="0.185855" stroke-miterlimit="10"/>
<path d="M18.9418 36.6732H20.8178V38.5492C20.8178 38.7135 20.883 38.8711 20.9992 38.9873C21.1154 39.1035 21.2731 39.1687 21.4374 39.1687C21.6017 39.1687 21.7592 39.1035 21.8754 38.9873C21.9916 38.8711 22.0569 38.7135 22.0569 38.5492V36.6732H23.9329C24.0973 36.6732 24.2548 36.6079 24.371 36.4917C24.4872 36.3755 24.5525 36.2179 24.5525 36.0536C24.5525 35.8893 24.4872 35.7317 24.371 35.6155C24.2548 35.4993 24.0973 35.434 23.9329 35.434H22.0569V33.5581C22.0569 33.3937 21.9916 33.2362 21.8754 33.12C21.7592 33.0038 21.6017 32.9385 21.4374 32.9385C21.2731 32.9385 21.1154 33.0038 20.9992 33.12C20.883 33.2362 20.8178 33.3937 20.8178 33.5581V35.434H18.9418C18.7775 35.434 18.6199 35.4993 18.5037 35.6155C18.3875 35.7317 18.3223 35.8893 18.3223 36.0536C18.3223 36.2179 18.3875 36.3755 18.5037 36.4917C18.6199 36.6079 18.7775 36.6732 18.9418 36.6732Z" fill="#BCBCBC" stroke="#000305" stroke-width="0.185855" stroke-miterlimit="10"/>
<path d="M32.5762 47.5504C35.2896 48.5154 38.2061 48.7644 41.0439 48.2732C42.5498 48.0045 44.01 47.5235 45.3809 46.8447" stroke="#00070C" stroke-width="0.283177" stroke-miterlimit="10"/>
</svg>
