<svg width="68" height="68" viewBox="0 0 68 68" fill="none" xmlns="http://www.w3.org/2000/svg">
<path d="M12.75 4.25H55.25C59.959 4.25 63.75 8.041 63.75 12.75V55.25C63.75 59.959 59.959 63.75 55.25 63.75H12.75C8.041 63.75 4.25 59.959 4.25 55.25V12.75C4.25 8.041 8.041 4.25 12.75 4.25Z" stroke="black" stroke-width="4" stroke-linecap="round" stroke-linejoin="round"/>
<path d="M17 17H21.25H17Z" fill="#2B2B2B"/>
<path d="M17 17H21.25" stroke="black" stroke-width="4" stroke-linecap="round" stroke-linejoin="round"/>
<path d="M25.5 21.25C24.3728 21.25 23.2918 20.8022 22.4948 20.0052C21.6978 19.2082 21.25 18.1272 21.25 17C21.25 15.8728 21.6978 14.7918 22.4948 13.9948C23.2918 13.1978 24.3728 12.75 25.5 12.75C26.0581 12.75 26.6108 12.8599 27.1264 13.0735C27.642 13.2871 28.1106 13.6001 28.5052 13.9948C28.8999 14.3894 29.2129 14.858 29.4265 15.3736C29.6401 15.8892 29.75 16.4419 29.75 17C29.75 17.5581 29.6401 18.1108 29.4265 18.6264C29.2129 19.142 28.8999 19.6106 28.5052 20.0052C28.1106 20.3999 27.642 20.7129 27.1264 20.9265C26.6108 21.1401 26.0581 21.25 25.5 21.25Z" stroke="black" stroke-width="4" stroke-linecap="round" stroke-linejoin="round"/>
<path d="M29.75 17L51 17" stroke="black" stroke-width="4" stroke-linecap="round" stroke-linejoin="round"/>
<path d="M51 34H46.75" stroke="black" stroke-width="4" stroke-linecap="round" stroke-linejoin="round"/>
<path d="M42.5 38.25C43.6272 38.25 44.7082 37.8022 45.5052 37.0052C46.3022 36.2082 46.75 35.1272 46.75 34C46.75 32.8728 46.3022 31.7918 45.5052 30.9948C44.7082 30.1978 43.6272 29.75 42.5 29.75C41.3728 29.75 40.2918 30.1978 39.4948 30.9948C38.6978 31.7918 38.25 32.8728 38.25 34C38.25 35.1272 38.6978 36.2082 39.4948 37.0052C40.2918 37.8022 41.3728 38.25 42.5 38.25Z" stroke="black" stroke-width="4" stroke-linecap="round" stroke-linejoin="round"/>
<path d="M38.25 34L17 34" stroke="black" stroke-width="4" stroke-linecap="round" stroke-linejoin="round"/>
<path d="M17 51H21.25" stroke="black" stroke-width="4" stroke-linecap="round" stroke-linejoin="round"/>
<path d="M25.5 55.25C24.3728 55.25 23.2918 54.8022 22.4948 54.0052C21.6978 53.2082 21.25 52.1272 21.25 51C21.25 49.8728 21.6978 48.7918 22.4948 47.9948C23.2918 47.1978 24.3728 46.75 25.5 46.75C26.0581 46.75 26.6108 46.8599 27.1264 47.0735C27.642 47.2871 28.1106 47.6001 28.5052 47.9948C28.8999 48.3894 29.2129 48.858 29.4265 49.3736C29.6401 49.8892 29.75 50.4419 29.75 51C29.75 51.5581 29.6401 52.1108 29.4265 52.6264C29.2129 53.142 28.8999 53.6106 28.5052 54.0052C28.1106 54.3999 27.642 54.7129 27.1264 54.9265C26.6108 55.1401 26.0581 55.25 25.5 55.25Z" stroke="black" stroke-width="4" stroke-linecap="round" stroke-linejoin="round"/>
<path d="M29.75 51L51 51" stroke="black" stroke-width="4" stroke-linecap="round" stroke-linejoin="round"/>
</svg>
