<svg width="68" height="68" viewBox="0 0 68 68" fill="none" xmlns="http://www.w3.org/2000/svg">
<path d="M57.346 19.1533C52.1327 13.9117 44.341 12.835 38.0227 15.8383L35.3027 13.1183C35.0406 12.8557 34.7292 12.6473 34.3864 12.5051C34.0437 12.3629 33.6763 12.2897 33.3052 12.2897C32.9341 12.2897 32.5667 12.3629 32.2239 12.5051C31.8812 12.6473 31.5698 12.8557 31.3077 13.1183L31.081 13.3733C30.6843 10.625 28.3327 8.5 25.4993 8.5C22.3827 8.5 19.8327 11.05 19.8327 14.1667C19.8327 14.4217 19.8327 14.6767 19.9177 14.9033C18.1893 15.895 16.9993 17.7083 16.9993 19.8333C16.9993 21.1367 17.4527 22.2983 18.1893 23.2617C17.8259 23.5118 17.528 23.8458 17.3209 24.2354C17.1137 24.625 17.0035 25.0588 16.9993 25.5V29.325C10.3977 31.6483 5.66602 37.9383 5.66602 45.3333C5.66602 54.7117 13.2877 62.3333 22.666 62.3333C32.0443 62.3333 39.666 54.7117 39.666 45.3333C39.6661 41.8202 38.576 38.3935 36.5461 35.5262C34.5161 32.6589 31.6463 30.4921 28.3327 29.325V25.5C28.3286 25.0588 28.2183 24.625 28.0112 24.2354C27.804 23.8458 27.5061 23.5118 27.1427 23.2617C27.8793 22.2983 28.3327 21.1367 28.3327 19.8333C28.3327 19.5783 28.3327 19.3233 28.2477 19.0967C28.7577 18.8133 29.1827 18.4167 29.551 18.0767C32.186 19.4933 33.9993 22.27 33.9993 25.5V25.7267C34.3677 25.925 34.7077 26.2083 35.076 26.435C35.6143 25.245 36.351 24.0833 37.3143 23.1483C39.4438 21.0271 42.327 19.8361 45.3327 19.8361C48.3384 19.8361 51.2216 21.0271 53.351 23.1483C55.4722 25.2778 56.6632 28.161 56.6632 31.1667C56.6632 34.1723 55.4722 37.0556 53.351 39.185C51.0843 41.4517 48.166 42.5 45.1343 42.5C45.3327 43.4067 45.3327 44.37 45.3327 45.3333C45.3327 46.2967 45.2477 47.2317 45.1343 48.1667C49.5827 48.1667 53.9743 46.5517 57.346 43.18C58.9291 41.6055 60.1854 39.7336 61.0427 37.6719C61.9 35.6102 62.3413 33.3995 62.3413 31.1667C62.3413 28.9339 61.9 26.7231 61.0427 24.6614C60.1854 22.5998 58.9291 20.7279 57.346 19.1533ZM25.4993 11.3333C27.0577 11.3333 28.3327 12.6083 28.3327 14.1667C28.3327 15.1017 27.851 15.895 27.1427 16.405C26.1227 15.045 24.5077 14.1667 22.666 14.1667C22.666 12.6083 23.941 11.3333 25.4993 11.3333ZM21.0227 17.595C22.0427 18.955 23.6577 19.8333 25.4993 19.8333C25.4993 21.3917 24.2243 22.6667 22.666 22.6667C21.1077 22.6667 19.8327 21.3917 19.8327 19.8333C19.8327 18.8983 20.3143 18.105 21.0227 17.595ZM33.9993 45.3333C33.9993 51.595 28.9277 56.6667 22.666 56.6667C16.4043 56.6667 11.3327 51.595 11.3327 45.3333C11.3327 39.0717 16.4043 34 22.666 34C28.9277 34 33.9993 39.0717 33.9993 45.3333Z" fill="black"/>
</svg>
