<svg width="68" height="68" viewBox="0 0 68 68" fill="none" xmlns="http://www.w3.org/2000/svg">
<path fill-rule="evenodd" clip-rule="evenodd" d="M12.1965 52.3975C7.53706 47.2848 4.70373 40.5358 4.70373 33.1351C4.70373 17.1778 17.8745 4.24219 34.1208 4.24219C50.3671 4.24219 63.5379 17.1792 63.5379 33.1351C63.5379 44.4189 56.9504 54.1868 47.3496 58.9439C41.2696 62.1075 34.5146 63.7537 27.6608 63.7422C18.9455 63.7422 10.8478 61.1369 4.13281 56.6773C4.13281 56.6773 8.6364 56.1857 12.1936 52.3961L12.1965 52.3975ZM47.939 47.4364C55.5507 39.8274 55.5507 27.4897 47.939 19.8779C44.5542 16.483 40.0326 14.4609 35.2456 14.2014C35.1068 10.7348 36.9726 8.39444 36.9811 8.3831V8.38169C31.4881 9.4399 26.4399 12.1244 22.4914 16.0869C19.4408 19.1271 17.1353 22.832 15.7551 26.9117C15.9506 26.3922 16.1693 25.8804 16.4111 25.376C16.1343 26.0844 15.8826 26.8078 15.656 27.5464C13.4276 34.3124 15.0001 42.0559 20.3806 47.4364C27.9909 55.0467 40.3286 55.0467 47.939 47.4364Z" fill="black"/>
<path fill-rule="evenodd" clip-rule="evenodd" d="M24.2676 31.6543V35.6876C24.2676 36.4604 24.5746 37.2016 25.1211 37.7481C25.6676 38.2946 26.4088 38.6017 27.1817 38.6017C27.9545 38.6017 28.6957 38.2946 29.2422 37.7481C29.7887 37.2016 30.0957 36.4604 30.0957 35.6876V31.6543C30.0957 30.8815 29.7887 30.1402 29.2422 29.5938C28.6957 29.0473 27.9545 28.7402 27.1817 28.7402C26.4088 28.7402 25.6676 29.0473 25.1211 29.5938C24.5746 30.1402 24.2676 30.8815 24.2676 31.6543ZM38.6935 31.6543V35.6876C38.6935 36.4604 39.0005 37.2016 39.547 37.7481C40.0935 38.2946 40.8347 38.6017 41.6076 38.6017C42.3804 38.6017 43.1216 38.2946 43.6681 37.7481C44.2146 37.2016 44.5217 36.4604 44.5217 35.6876V31.6543C44.5217 30.8815 44.2146 30.1402 43.6681 29.5938C43.1216 29.0473 42.3804 28.7402 41.6076 28.7402C40.8347 28.7402 40.0935 29.0473 39.547 29.5938C39.0005 30.1402 38.6935 30.8815 38.6935 31.6543Z" fill="black"/>
</svg>
