<svg width="68" height="68" viewBox="0 0 68 68" fill="none" xmlns="http://www.w3.org/2000/svg">
<path d="M6.3749 12.75C6.3749 11.0592 7.04655 9.43774 8.24209 8.24219C9.43764 7.04665 11.0591 6.375 12.7499 6.375H21.2499C22.9407 6.375 24.5622 7.04665 25.7577 8.24219C26.9532 9.43774 27.6249 11.0592 27.6249 12.75V21.25C27.6249 22.9408 26.9532 24.5623 25.7577 25.7578C24.5622 26.9534 22.9407 27.625 21.2499 27.625H19.1249V38.8153C19.4482 39.0021 19.7454 39.2307 20.0089 39.4953L28.5153 47.9995C28.7769 48.2608 29.0034 48.5551 29.1889 48.875H40.3749V46.75C40.3749 45.0592 41.0465 43.4377 42.2421 42.2422C43.4376 41.0466 45.0591 40.375 46.7499 40.375H55.2499C56.9407 40.375 58.5622 41.0466 59.7577 42.2422C60.9532 43.4377 61.6249 45.0592 61.6249 46.75V55.25C61.6249 56.9408 60.9532 58.5623 59.7577 59.7578C58.5622 60.9534 56.9407 61.625 55.2499 61.625H46.7499C45.0591 61.625 43.4376 60.9534 42.2421 59.7578C41.0465 58.5623 40.3749 56.9408 40.3749 55.25V53.125H29.1931C29.0118 53.4437 28.7851 53.7384 28.5131 54.009L20.011 62.5175C19.214 63.3143 18.1332 63.7618 17.0063 63.7618C15.8793 63.7618 14.7985 63.3143 14.0015 62.5175L5.49727 54.0111C4.70052 53.2141 4.25293 52.1333 4.25293 51.0064C4.25293 49.8794 4.70052 48.7986 5.49727 48.0016L14.0015 39.4974C14.2707 39.2282 14.5625 39.0037 14.877 38.8237V27.625H12.7499C11.0591 27.625 9.43764 26.9534 8.24209 25.7578C7.04655 24.5623 6.3749 22.9408 6.3749 21.25V12.75ZM17.0041 42.5L8.4999 51.0043L17.0041 59.5085L25.4999 51.0149V50.9936L17.0041 42.5ZM12.7499 10.625C12.1863 10.625 11.6458 10.8489 11.2473 11.2474C10.8488 11.6459 10.6249 12.1864 10.6249 12.75V21.25C10.6249 21.8136 10.8488 22.3541 11.2473 22.7526C11.6458 23.1511 12.1863 23.375 12.7499 23.375H21.2499C21.8135 23.375 22.354 23.1511 22.7525 22.7526C23.151 22.3541 23.3749 21.8136 23.3749 21.25V12.75C23.3749 12.1864 23.151 11.6459 22.7525 11.2474C22.354 10.8489 21.8135 10.625 21.2499 10.625H12.7499ZM46.7499 44.625C46.1863 44.625 45.6458 44.8489 45.2473 45.2474C44.8488 45.6459 44.6249 46.1864 44.6249 46.75V55.25C44.6249 55.8136 44.8488 56.3541 45.2473 56.7526C45.6458 57.1511 46.1863 57.375 46.7499 57.375H55.2499C55.8135 57.375 56.354 57.1511 56.7525 56.7526C57.151 56.3541 57.3749 55.8136 57.3749 55.25V46.75C57.3749 46.1864 57.151 45.6459 56.7525 45.2474C56.354 44.8489 55.8135 44.625 55.2499 44.625H46.7499Z" fill="#2B2B2B"/>
</svg>
