<svg width="68" height="68" viewBox="0 0 68 68" fill="none" xmlns="http://www.w3.org/2000/svg">
<path d="M33.9949 5.66602C25.4722 5.66602 19.9472 11.3865 13.4136 13.4718C10.7559 14.3218 9.42707 14.744 8.88873 15.3418C8.3504 15.9368 8.19457 16.8123 7.88007 18.5577C4.5084 37.2463 11.8751 54.524 29.4417 61.2503C31.3259 61.9728 32.2694 62.3327 34.0034 62.3327C35.7374 62.3327 36.6837 61.97 38.5707 61.2475C56.1346 54.524 63.4927 37.2463 60.1211 18.5577C59.8066 16.8123 59.6479 15.9368 59.1096 15.339C58.5712 14.7412 57.2452 14.319 54.5876 13.4718C48.0511 11.3865 42.5176 5.66602 33.9949 5.66602Z" stroke="black" stroke-width="4" stroke-linecap="round" stroke-linejoin="round"/>
<path d="M29.0427 28.2164C29.0427 28.0464 29.0654 27.066 29.071 25.8364C29.071 24.7087 28.9747 23.6264 29.513 22.6347C31.5247 18.6284 37.3047 19.0364 38.7327 23.1164C38.9792 23.7879 38.9962 24.8504 38.9877 25.8364C38.9792 27.0915 39.0047 28.2164 39.0047 28.2164M29.2892 29.4092C26.2292 29.4092 24.6992 31.6192 24.3592 32.9792C24.0192 34.3392 24.0192 39.2692 24.2232 41.3092C24.9032 43.8592 26.6032 44.9132 28.2692 45.2532C29.7992 45.3892 36.2592 45.3382 38.1292 45.3382C40.8492 45.3892 42.8892 44.3692 43.7392 41.3092C43.9092 40.2892 44.0792 34.6792 43.6542 32.9792C42.7532 30.2592 40.5092 29.4092 38.8092 29.4092H29.2892Z" stroke="black" stroke-width="4" stroke-linecap="round" stroke-linejoin="round"/>
</svg>
