<svg width="412" height="514" viewBox="0 0 412 514" fill="none" xmlns="http://www.w3.org/2000/svg">
<path d="M155 514C195.725 514 235.868 504.322 272.119 485.762C308.37 467.203 339.691 440.295 363.501 407.255C387.311 374.214 402.928 335.989 409.065 295.729C415.202 255.468 411.684 214.326 398.799 175.692C385.915 137.058 364.033 102.04 334.959 73.5228C305.884 45.0057 270.448 23.8064 231.573 11.6724C192.697 -0.46169 151.494 -3.18315 111.36 3.7323C71.2257 10.6477 33.3097 27.0021 0.736847 51.4474L58.4213 128.311C78.8141 113.007 102.552 102.768 127.678 98.4381C152.805 94.1086 178.601 95.8124 202.939 103.409C227.278 111.006 249.463 124.278 267.666 142.131C285.868 159.985 299.567 181.909 307.634 206.096C315.7 230.283 317.903 256.041 314.061 281.247C310.219 306.452 300.442 330.384 285.535 351.069C270.628 371.754 251.019 388.601 228.324 400.22C205.629 411.839 180.497 417.899 155 417.899V514Z" fill="url(#paint0_radial_4_4)"/>
<path d="M349.326 106.157C325.055 74.8896 293.597 49.9405 257.624 33.4281C221.65 16.9157 182.224 9.32764 142.691 11.3081L146.571 88.7478C173.643 87.3916 200.643 92.588 225.278 103.896C249.913 115.204 271.455 132.289 288.076 153.701L349.326 106.157Z" fill="#46B9EA"/>
<circle cx="155" cy="257" r="107" fill="url(#paint1_linear_4_4)"/>
<circle cx="155" cy="257" r="51" fill="url(#paint2_linear_4_4)"/>
<defs>
<radialGradient id="paint0_radial_4_4" cx="0" cy="0" r="1" gradientUnits="userSpaceOnUse" gradientTransform="translate(435 211.5) rotate(170.77) scale(283.673)">
<stop stop-color="#6D6D6D"/>
<stop offset="0.58412" stop-color="#4F4F4F"/>
<stop offset="0.784928" stop-color="#3D3D3D"/>
</radialGradient>
<linearGradient id="paint1_linear_4_4" x1="218.5" y1="344" x2="101" y2="167" gradientUnits="userSpaceOnUse">
<stop stop-color="#5D5D5D"/>
<stop offset="0.752311" stop-color="#3D3D3D"/>
</linearGradient>
<linearGradient id="paint2_linear_4_4" x1="131" y1="297" x2="193.5" y2="220.5" gradientUnits="userSpaceOnUse">
<stop stop-color="#9BF4E3"/>
<stop offset="1" stop-color="#135D58"/>
</linearGradient>
</defs>
</svg>
