<svg width="135" height="159" viewBox="0 0 135 159" fill="none" xmlns="http://www.w3.org/2000/svg">
<path d="M79.5 159C58.4153 159 38.1941 150.624 23.285 135.715C8.37586 120.806 -4.3967e-06 100.585 -3.47506e-06 79.5C-2.55341e-06 58.4153 8.37587 38.1942 23.285 23.285C38.1941 8.37587 58.4153 -1.21299e-06 79.5 -3.47506e-06L79.5 15.9C62.6322 15.9 46.4553 22.6007 34.528 34.528C22.6007 46.4553 15.9 62.6322 15.9 79.5C15.9 96.3678 22.6007 112.545 34.528 124.472C46.4553 136.399 62.6322 143.1 79.5 143.1L79.5 159Z" fill="#1181B8"/>
<g filter="url(#filter0_d_4_2)">
<circle cx="79" cy="79" r="52" fill="#1181B8"/>
</g>
<path d="M79 49.75C73.2149 49.75 67.5597 51.4655 62.7496 54.6795C57.9394 57.8935 54.1904 62.4618 51.9765 67.8065C49.7627 73.1512 49.1834 79.0324 50.312 84.7064C51.4407 90.3803 54.2265 95.5922 58.3171 99.6829C62.4078 103.774 67.6197 106.559 73.2936 107.688C78.9676 108.817 84.8488 108.237 90.1935 106.023C95.5382 103.81 100.106 100.061 103.32 95.2504C106.535 90.4403 108.25 84.7851 108.25 79C108.242 71.2449 105.158 63.8098 99.6738 58.3262C94.1902 52.8425 86.7551 49.7582 79 49.75ZM79 103.75C74.1049 103.75 69.3198 102.298 65.2496 99.5789C61.1795 96.8593 58.0073 92.9939 56.134 88.4714C54.2607 83.9489 53.7706 78.9725 54.7256 74.1715C55.6806 69.3705 58.0378 64.9605 61.4991 61.4991C64.9605 58.0378 69.3705 55.6805 74.1715 54.7256C78.9726 53.7706 83.949 54.2607 88.4714 56.134C92.9939 58.0073 96.8593 61.1795 99.5789 65.2496C102.298 69.3198 103.75 74.1049 103.75 79C103.743 85.5618 101.133 91.8528 96.4927 96.4927C91.8528 101.133 85.5618 103.743 79 103.75ZM97 79C97 79.5967 96.763 80.169 96.341 80.591C95.919 81.0129 95.3467 81.25 94.75 81.25H79C78.4033 81.25 77.831 81.0129 77.409 80.591C76.9871 80.169 76.75 79.5967 76.75 79V63.25C76.75 62.6533 76.9871 62.081 77.409 61.659C77.831 61.2371 78.4033 61 79 61C79.5968 61 80.169 61.2371 80.591 61.659C81.013 62.081 81.25 62.6533 81.25 63.25V76.75H94.75C95.3467 76.75 95.919 76.9871 96.341 77.409C96.763 77.831 97 78.4033 97 79Z" fill="#FDFDFD"/>
<defs>
<filter id="filter0_d_4_2" x="23" y="27" width="112" height="112" filterUnits="userSpaceOnUse" color-interpolation-filters="sRGB">
<feFlood flood-opacity="0" result="BackgroundImageFix"/>
<feColorMatrix in="SourceAlpha" type="matrix" values="0 0 0 0 0 0 0 0 0 0 0 0 0 0 0 0 0 0 127 0" result="hardAlpha"/>
<feOffset dy="4"/>
<feGaussianBlur stdDeviation="2"/>
<feComposite in2="hardAlpha" operator="out"/>
<feColorMatrix type="matrix" values="0 0 0 0 0 0 0 0 0 0 0 0 0 0 0 0 0 0 0.12 0"/>
<feBlend mode="normal" in2="BackgroundImageFix" result="effect1_dropShadow_4_2"/>
<feBlend mode="normal" in="SourceGraphic" in2="effect1_dropShadow_4_2" result="shape"/>
</filter>
</defs>
</svg>
